<svg width="480" height="430" viewBox="0 0 480 430" fill="none" xmlns="http://www.w3.org/2000/svg">
<path d="M239.65 429.99C372.005 429.99 479.3 373.251 479.3 303.26C479.3 233.269 372.005 176.53 239.65 176.53C107.295 176.53 0 233.269 0 303.26C0 373.251 107.295 429.99 239.65 429.99Z" fill="#F5F5F5"/>
<path d="M106.43 358.38C146.526 358.38 179.03 339.612 179.03 316.46C179.03 293.309 146.526 274.54 106.43 274.54C66.3341 274.54 33.83 293.309 33.83 316.46C33.83 339.612 66.3341 358.38 106.43 358.38Z" fill="#E0E0E0"/>
<path d="M376.7 369.96C416.343 369.96 448.48 351.358 448.48 328.41C448.48 305.463 416.343 286.86 376.7 286.86C337.057 286.86 304.92 305.463 304.92 328.41C304.92 351.358 337.057 369.96 376.7 369.96Z" fill="#E0E0E0"/>
<path d="M410.29 276.1C410.29 276.1 406.98 259.62 410.9 244.73C414.82 229.84 423.17 218.65 433.03 214.58C442.89 210.51 454.03 217.19 445.29 227.09C436.55 236.99 419.41 249.74 418.29 276.56L410.29 276.1Z" fill="#9649CB"/>
<path opacity="0.15" d="M410.29 276.1C410.29 276.1 406.98 259.62 410.9 244.73C414.82 229.84 423.17 218.65 433.03 214.58C442.89 210.51 454.03 217.19 445.29 227.09C436.55 236.99 419.41 249.74 418.29 276.56L410.29 276.1Z" fill="black"/>
<path d="M411.92 271.01H411.81C411.735 271.005 411.662 270.985 411.595 270.952C411.527 270.919 411.467 270.872 411.418 270.815C411.369 270.759 411.331 270.693 411.308 270.622C411.284 270.55 411.275 270.475 411.28 270.4C413.48 240.61 430.28 223.05 438.82 217.92C438.886 217.882 438.958 217.857 439.033 217.847C439.109 217.837 439.185 217.842 439.258 217.862C439.332 217.881 439.401 217.915 439.461 217.961C439.521 218.007 439.572 218.065 439.61 218.13C439.648 218.196 439.673 218.268 439.683 218.344C439.693 218.419 439.688 218.495 439.669 218.569C439.649 218.642 439.615 218.711 439.569 218.771C439.523 218.832 439.466 218.882 439.4 218.92C431.01 223.92 414.58 241.18 412.4 270.51C412.386 270.635 412.331 270.751 412.245 270.842C412.158 270.932 412.044 270.991 411.92 271.01Z" fill="white"/>
<path d="M419.31 292.77C419.057 290.047 418.337 287.388 417.18 284.91C415.99 282.25 413.8 279.91 413.11 277.04C412.724 274.535 413.346 271.978 414.84 269.93C416.23 267.98 418.25 266.41 419 264.14C419.75 261.87 419 259.28 419.12 256.83C419.239 254.121 420.406 251.564 422.374 249.698C424.342 247.833 426.958 246.804 429.67 246.83C432.19 246.83 434.6 247.83 437.03 248.47C439.469 249.274 442.101 249.274 444.54 248.47C447.17 247.429 449.878 246.6 452.64 245.99C457.36 245.09 463.64 245.54 466.2 250.24C466.898 251.378 467.203 252.713 467.07 254.04V254.21C466.35 257.86 462.18 259.39 459.72 261.59C459.05 262.19 457.91 263.08 457.8 264.06C457.69 265.04 458.72 266.14 459.28 266.92C460.71 268.92 462.57 270.74 463.18 273.19C464.06 276.71 461.75 280.69 459.06 282.78C456.398 284.667 453.302 285.85 450.06 286.22C448.46 286.46 446.7 286.65 445.58 287.82C445.125 288.359 444.787 288.987 444.589 289.664C444.391 290.34 444.337 291.051 444.43 291.75C444.52 293.16 444.92 294.53 445.05 295.93C445.201 298.163 444.751 300.395 443.744 302.393C442.738 304.391 441.214 306.083 439.33 307.29C436.175 309.24 432.398 309.923 428.76 309.2C425.76 308.65 422.76 305.77 421.67 302.96C420.421 299.688 419.626 296.259 419.31 292.77Z" fill="#9649CB"/>
<path d="M422.01 300.66C421.939 300.666 421.868 300.657 421.801 300.634C421.734 300.611 421.672 300.574 421.62 300.526C421.567 300.479 421.525 300.421 421.496 300.356C421.467 300.291 421.451 300.221 421.45 300.15C419.72 266.54 450.81 251.55 458.6 249.64C458.738 249.61 458.882 249.633 459.003 249.705C459.124 249.778 459.212 249.894 459.25 250.03C459.283 250.168 459.261 250.314 459.188 250.435C459.115 250.557 458.997 250.645 458.86 250.68C451.24 252.55 420.86 267.21 422.51 300.1C422.516 300.24 422.467 300.377 422.373 300.481C422.28 300.586 422.15 300.65 422.01 300.66Z" fill="white"/>
<path d="M453.11 273.34C453.003 273.354 452.894 273.333 452.8 273.28C448.956 271.646 444.798 270.88 440.623 271.037C436.449 271.195 432.361 272.271 428.65 274.19C428.584 274.222 428.513 274.24 428.44 274.244C428.368 274.248 428.295 274.238 428.226 274.214C428.157 274.189 428.094 274.152 428.04 274.103C427.986 274.055 427.942 273.996 427.91 273.93C427.878 273.865 427.86 273.793 427.856 273.721C427.852 273.648 427.863 273.575 427.887 273.506C427.911 273.438 427.948 273.374 427.997 273.32C428.046 273.266 428.104 273.222 428.17 273.19C432.031 271.195 436.286 270.08 440.629 269.925C444.972 269.769 449.296 270.577 453.29 272.29C453.415 272.356 453.509 272.469 453.552 272.603C453.595 272.738 453.583 272.884 453.52 273.01C453.486 273.096 453.431 273.172 453.359 273.23C453.287 273.288 453.201 273.326 453.11 273.34V273.34Z" fill="white"/>
<path d="M66.4599 262.48C67.6699 254.74 67.1899 241.42 61.2099 227.43C54.8099 212.43 45.2099 201.73 35.7399 203.43C26.9299 204.98 27.3099 216.71 38.4299 230.87C46.2299 240.8 55.1499 252.03 57.6399 265.29L61.3799 283.69L66.4599 262.48Z" fill="#9649CB"/>
<g opacity="0.15">
<path opacity="0.15" d="M66.4599 262.48C67.6699 254.74 67.1899 241.42 61.2099 227.43C54.8099 212.43 45.2099 201.73 35.7399 203.43C26.9299 204.98 27.3099 216.71 38.4299 230.87C46.2299 240.8 55.1499 252.03 57.6399 265.29L61.3799 283.69L66.4599 262.48Z" fill="black"/>
</g>
<path d="M64.3 268.09C64.1901 268.061 64.0914 268 64.0166 267.915C63.9417 267.829 63.8942 267.723 63.88 267.61C61.29 244.71 50.47 219.61 38.73 209.14C38.6279 209.034 38.5709 208.893 38.5709 208.745C38.5709 208.598 38.6279 208.456 38.73 208.35C38.7804 208.298 38.8409 208.256 38.908 208.227C38.975 208.199 39.0471 208.184 39.12 208.184C39.1929 208.184 39.265 208.199 39.332 208.227C39.399 208.256 39.4596 208.298 39.51 208.35C51.44 218.94 62.41 244.35 65.03 267.52C65.0397 267.593 65.0347 267.668 65.0152 267.739C64.9956 267.81 64.962 267.876 64.9163 267.934C64.8706 267.992 64.8137 268.04 64.7491 268.075C64.6844 268.111 64.6133 268.133 64.54 268.14L64.3 268.09Z" fill="white"/>
<path d="M56.71 303.68C56.09 303.89 55.43 304 54.71 304.23C51.5762 305.278 48.3248 305.933 45.03 306.18C38.57 306.56 31.77 305.18 26.6 301.11C25.53 300.28 24.45 299.04 24.8 297.74C25.06 296.74 26.03 296.15 26.92 295.65L39.81 288.48L24.04 289.71C23.0108 289.865 21.9604 289.797 20.96 289.51C19.6494 288.879 18.5918 287.821 17.96 286.51C16.8265 284.598 15.9617 282.539 15.39 280.39C15.08 279.21 14.92 277.77 15.79 276.91C16.2425 276.525 16.7809 276.254 17.36 276.12C22.8074 274.428 28.4246 273.342 34.11 272.88C28.67 270.77 22.78 270.5 17.03 270.05C16.6172 270.048 16.2091 269.963 15.83 269.8C14.92 269.34 14.68 268.17 14.59 267.16C14 260.51 15.71 253.72 16.38 247.16C16.6 245.02 16.84 245.1 18.81 245.37C27.71 246.61 35.97 248.99 44.62 251.21C45.6156 251.357 46.5376 251.82 47.25 252.53C47.557 253.029 47.7612 253.584 47.8505 254.163C47.9399 254.742 47.9125 255.332 47.77 255.9C47.3258 259.156 46.353 262.318 44.89 265.26C47.3703 263.13 49.4088 260.535 50.89 257.62C51.1631 256.871 51.6857 256.239 52.37 255.83C52.8225 255.723 53.2939 255.722 53.7469 255.828C54.1999 255.933 54.622 256.143 54.98 256.44C66.51 263.72 66.63 278.01 64.33 289.97C64.22 290.56 64.1 291.15 63.98 291.74C63.6015 294.165 62.7667 296.496 61.52 298.61C60.633 300.124 59.5615 301.521 58.33 302.77C57.8659 303.192 57.312 303.504 56.71 303.68Z" fill="#9649CB"/>
<path d="M56 305.28C55.9021 305.243 55.8164 305.18 55.7528 305.097C55.6892 305.014 55.6501 304.914 55.64 304.81C54.05 286.5 33.14 258.02 23.94 252.33C23.8781 252.292 23.8242 252.243 23.7816 252.184C23.739 252.125 23.7084 252.058 23.6917 251.988C23.675 251.917 23.6724 251.844 23.6841 251.772C23.6958 251.701 23.7216 251.632 23.76 251.57C23.8401 251.447 23.9651 251.359 24.1087 251.325C24.2523 251.292 24.4033 251.315 24.53 251.39C33.88 257.17 55.13 286.11 56.75 304.71C56.7568 304.783 56.749 304.857 56.7269 304.927C56.7048 304.997 56.669 305.062 56.6215 305.118C56.5739 305.174 56.5157 305.22 56.4502 305.253C56.3847 305.286 56.3132 305.305 56.24 305.31C56.1588 305.32 56.0763 305.31 56 305.28V305.28Z" fill="white"/>
<path d="M283.36 79.9003C281.47 78.7503 278.92 78.0603 277.07 77.2003C275.68 76.5503 273.84 76.0203 273.31 74.4103C273.116 73.7172 273.022 73 273.03 72.2803C273.038 71.566 272.923 70.8556 272.69 70.1803C272.422 69.6972 272.204 69.1879 272.04 68.6603C271.993 67.9822 272.085 67.3017 272.31 66.6603C272.448 66.0319 272.392 65.3764 272.15 64.7803C271.92 64.0979 271.878 63.3661 272.03 62.6621C272.181 61.958 272.52 61.3079 273.01 60.7803C273.292 60.5237 273.546 60.2389 273.77 59.9303C274.18 59.2503 274.01 58.3703 274.22 57.6003C275.13 54.1703 281.13 56.9203 282.99 58.0103C283.52 58.3203 286.17 59.7803 287.35 60.4903C287.665 58.5489 288.276 56.6671 289.16 54.9103C290.76 51.4803 294.7 50.8503 294.44 53.0803C293.97 55.5242 293.783 58.0137 293.88 60.5003C293.972 62.5216 294.25 64.53 294.71 66.5003C295.4 69.8784 296.428 73.1784 297.78 76.3503C300.24 82.1403 312.36 99.0803 312.36 99.0803C318.36 95.6503 336.87 84.6903 344.23 80.2303C352.29 75.3403 361.72 77.0003 361.72 77.0003L346.65 100.17C346.65 100.17 323.55 112.53 316.21 116.52C310.21 119.79 305.41 121.06 301.13 112.82C294.48 100.06 286.65 82.5003 283.36 79.9003Z" fill="#FFA8A7"/>
<path d="M285.65 61.2203C287.5 62.0803 287.87 63.4203 287.47 66.2203C287.23 67.8603 287.33 70.9603 288.97 72.4103C288.117 72.2085 287.346 71.7515 286.76 71.1003C286.03 70.1003 285.81 70.0003 285.28 70.4403C284.884 70.7229 284.429 70.9111 283.95 70.9903C284.21 71.3744 284.338 71.8321 284.317 72.2953C284.295 72.7584 284.124 73.2022 283.83 73.5603C282.83 74.8803 278.93 74.4303 275.98 72.4003C275.98 72.4003 280.9 74.6403 282.3 73.1603C283.7 71.6803 281.23 69.2903 279.3 68.4803C279.3 68.4803 284.1 70.2903 285.06 68.7603C286.02 67.2303 284.13 65.7603 281.31 64.6303C281.31 64.6303 285.31 65.8903 286.19 64.6303C287.18 62.9803 286.07 61.8503 285.65 61.2203Z" fill="#F28F8F"/>
<path d="M364.12 68.5503H371.12C374.213 68.549 377.275 67.9382 380.132 66.7527C382.989 65.5672 385.584 63.8304 387.769 61.6415C389.955 59.4525 391.687 56.8544 392.868 53.9956C394.048 51.1368 394.654 48.0733 394.65 44.9803V44.9803C394.658 37.8088 391.819 30.9273 386.756 25.8478C381.693 20.7683 374.822 17.9062 367.65 17.8903V17.8903C364.257 17.8533 360.893 18.5152 357.767 19.8348C354.641 21.1543 351.82 23.1033 349.48 25.5603L349.01 62.4903C349.01 62.4903 358.07 68.5503 364.12 68.5503Z" fill="#263238"/>
<path d="M380.23 21.5203L379.13 14.2203C378.645 14.2688 378.175 14.4158 377.749 14.6522C377.323 14.8886 376.95 15.2094 376.652 15.5951C376.355 15.9809 376.139 16.4233 376.018 16.8953C375.897 17.3673 375.874 17.8591 375.95 18.3403C376.117 19.3192 376.656 20.1959 377.453 20.7881C378.25 21.3803 379.244 21.6426 380.23 21.5203V21.5203Z" fill="#263238"/>
<path d="M394.38 29.5103C390.45 33.0303 387.1 30.2803 383.6 26.3303C380.1 22.3803 377.75 18.7403 381.65 15.2303C383.544 13.5475 386.028 12.6859 388.557 12.835C391.086 12.9841 393.452 14.1317 395.135 16.0253C396.818 17.919 397.679 20.4035 397.53 22.9325C397.381 25.4614 396.234 27.8275 394.34 29.5103H394.38Z" fill="#263238"/>
<path d="M425.65 306.68C424.73 308.59 425.21 310.97 425.14 316.15C425.2 319.559 425.06 322.968 424.72 326.36C424.56 327.57 424.17 328.67 423.91 329.85C423.741 330.79 423.262 331.645 422.55 332.28C422.244 332.568 421.874 332.777 421.47 332.89C421.066 333.003 420.64 333.017 420.23 332.93C419.911 332.83 419.616 332.667 419.362 332.451C419.108 332.234 418.9 331.969 418.75 331.67C418.196 330.529 417.754 329.337 417.43 328.11C416.43 336.77 407.07 342.77 412.79 344.91C414.801 345.638 416.938 345.954 419.073 345.839C421.209 345.724 423.299 345.18 425.22 344.24C426.812 343.457 428.187 342.293 429.22 340.85C431.42 337 431.22 333.34 431.22 330.03C431.29 322.71 432.49 318.93 433.08 315.27C433.83 310.84 427.07 306.01 425.65 306.68Z" fill="#263238"/>
<path d="M362.9 305.83C363.063 305.873 363.209 305.967 363.315 306.098C363.421 306.23 363.483 306.392 363.49 306.56C363.65 307.56 363.84 309.36 364.17 311.02C364.61 313.23 365.08 316.42 364.72 318.2C364.36 319.98 361.96 321.7 357.46 322.97C353.925 324.08 350.618 325.818 347.7 328.1C344.99 330.57 339.2 332.63 335.28 332.74C330.69 332.88 325.9 331.65 324.8 328.34C324.33 326.94 326.61 325.42 332.49 322.6C332.49 322.6 335.49 321.03 337.15 319.97C345.64 314.62 348.53 311.59 351.01 306.13L362.9 305.83Z" fill="#263238"/>
<path d="M347.81 310.62C350.52 307.69 351.03 304.87 350.67 299.43C350.31 293.99 346.02 246.63 344.92 234.78C343.07 214.86 345.08 158.27 346.73 144.45L398.38 148.55C402.23 158.19 405.05 170.07 404.45 188.7C403.98 202.91 404.3 241.46 404.3 241.46C404.3 241.46 410.76 247.12 415.38 258.31C419.45 268.2 424.14 302.31 424.14 302.31C424.549 303.79 425.067 305.237 425.69 306.64C426.85 308.056 427.517 309.811 427.59 311.64C427.589 317.543 426.962 323.429 425.72 329.2C425.424 330.608 424.761 331.912 423.798 332.982C422.836 334.051 421.609 334.848 420.24 335.29C419.583 335.565 418.871 335.685 418.16 335.64C417.792 335.635 417.439 335.5 417.16 335.26C416.66 334.76 417.16 333.56 417.21 332.96C417.365 331.997 417.455 331.025 417.48 330.05C417.54 328.13 417.48 325.79 417.35 323.87C417.103 319.568 416.416 315.303 415.3 311.14L414.3 308.68C414.3 308.68 391.3 262.19 384.8 250.86C379.61 241.96 376.17 207.45 372.5 188.58L367.12 233.68C367.12 233.68 368.99 241.82 369.7 248.05C370.7 256.42 364.75 289.21 362.99 300.87C362.658 303.033 362.632 305.231 362.91 307.4V307.4C362.28 312.45 358.5 314.01 354.59 316.87C352.59 318.29 344.09 323.49 338.92 324.54C334.72 325.39 333.11 323.76 332.53 322.54C338.05 319.147 343.175 315.149 347.81 310.62V310.62Z" fill="#FFA8A7"/>
<path d="M388.5 129.77C388.5 129.77 393.16 135.47 400.41 149.84C405.28 159.48 405.59 194.84 405.59 194.84C405.59 194.84 401.35 204.5 374.59 202.9L372.59 190.9L370.88 202.62L368.88 202.42C345.88 199.94 341.54 194.72 341.54 194.72C341.54 194.72 343.2 153.64 348.21 130.32C356.03 135.85 379.15 137.16 388.5 129.77Z" fill="#455A64"/>
<path d="M372.65 190.93L367.54 171.03C367.54 171.03 357.65 169.97 349.96 164.34C349.96 164.34 351.54 171.61 365.14 173.76L370.98 193.28L370.92 202.68L372.65 190.93Z" fill="#263238"/>
<path d="M392 196.28C401.51 194.01 405.29 190.09 405.29 190.09L405.6 194.78C405.6 194.78 401.36 204.44 374.6 202.84L373.72 197.51C379.84 198.071 386.01 197.656 392 196.28Z" fill="#37474F"/>
<path d="M341.57 194.75C341.57 194.75 341.65 192.85 341.82 189.61C346.422 191.985 351.303 193.772 356.35 194.93C361.408 196.082 366.552 196.815 371.73 197.12L370.92 202.65L368.92 202.45C345.88 199.97 341.57 194.75 341.57 194.75Z" fill="#37474F"/>
<path d="M342.95 95.3403C348.11 87.3403 358.39 79.7503 361.72 77.1003L379.3 77.2403C381.72 77.3603 385.3 77.6603 386.6 77.8703C387.757 78.0636 388.877 78.4346 389.92 78.9703C393.97 81.1303 394.38 85.1403 394.52 89.9003C394.67 95.1103 394.7 97.4003 393.26 106.02L390.65 117.02L390.25 118.7C390.18 118.99 390.12 119.28 390.05 119.58C389.046 123.79 389.593 128.221 391.59 132.06C396.03 140.57 400.49 147.18 401.97 154.33C399.751 153.376 397.743 151.993 396.06 150.26C393.2 147.51 391.47 146.26 389.18 142.98C383.65 153.67 353.95 162.78 344.65 146.22C344.65 146.22 347.5 131.94 347.98 127.15C347.25 123 345.09 115.81 345.04 114.23C339.1 108.9 339.2 101.1 342.95 95.3403Z" fill="#9649CB"/>
<path opacity="0.1" d="M354.38 113.34C354.38 113.34 360.75 118.99 368.58 116.77C370.774 116.222 372.789 115.118 374.432 113.565C376.075 112.011 377.29 110.06 377.96 107.9C377.96 107.9 378.21 116.73 368.36 119.1C358.86 121.39 354.38 113.34 354.38 113.34Z" fill="black"/>
<path d="M345.05 52.6103C345.93 65.8203 349.05 69.4303 352.39 70.3903C354.64 71.0303 358.68 70.7503 362.7 70.0903V78.0303C362.7 78.0303 358.06 82.9103 358.41 86.5503C358.76 90.1903 365.71 90.6103 370.92 87.0403C373.788 85.0583 376.381 82.7044 378.63 80.0403C379.066 79.5307 379.304 78.881 379.3 78.2103V59.5403C379.3 59.5403 381.5 61.8803 385.41 59.2003C386.253 58.6617 386.975 57.9537 387.53 57.1212C388.085 56.2888 388.461 55.3502 388.634 54.3648C388.807 53.3794 388.773 52.3689 388.535 51.3972C388.297 50.4255 387.859 49.514 387.25 48.7203C385.56 46.7203 381.25 46.5803 379.17 49.7203C378 52.0003 377.84 54.3003 376.54 53.3503C373.06 50.8403 375.25 43.4203 371.05 40.6003C369.023 39.2589 366.912 38.0497 364.73 36.9803C357.24 34.3903 352.44 35.6503 350.88 30.5203C345.65 32.5203 344.07 38.0303 345.05 52.6103Z" fill="#FFA8A7"/>
<path d="M360.31 50.3403C360.308 50.6889 360.409 51.0302 360.6 51.3219C360.791 51.6137 361.063 51.843 361.383 51.9815C361.703 52.12 362.056 52.1615 362.399 52.101C362.742 52.0404 363.06 51.8804 363.314 51.6408C363.567 51.4012 363.744 51.0926 363.823 50.7532C363.903 50.4138 363.88 50.0585 363.76 49.7316C363.639 49.4046 363.425 49.1203 363.144 48.9138C362.863 48.7074 362.528 48.588 362.18 48.5703C361.698 48.5596 361.231 48.7394 360.881 49.0708C360.531 49.4023 360.326 49.8585 360.31 50.3403Z" fill="#263238"/>
<path d="M347.33 49.8403C347.314 50.065 347.342 50.2907 347.413 50.5044C347.484 50.7182 347.597 50.9157 347.745 51.0858C347.892 51.2558 348.072 51.395 348.274 51.4953C348.476 51.5956 348.695 51.6551 348.92 51.6703C349.146 51.6874 349.374 51.6565 349.588 51.5794C349.801 51.5024 349.996 51.381 350.159 51.2233C350.323 51.0655 350.451 50.875 350.536 50.6643C350.62 50.4535 350.659 50.2272 350.65 50.0003C350.666 49.7762 350.638 49.551 350.567 49.3379C350.495 49.1247 350.383 48.9278 350.235 48.7586C350.087 48.5893 349.907 48.4511 349.705 48.3518C349.504 48.2526 349.284 48.1943 349.06 48.1803C348.612 48.1775 348.181 48.3493 347.858 48.6592C347.535 48.9692 347.346 49.3929 347.33 49.8403V49.8403Z" fill="#263238"/>
<path d="M355.61 48.1803L355.32 59.3203L349.47 57.5003L355.61 48.1803Z" fill="#F28F8F"/>
<path d="M362.71 70.0803C366.96 69.5303 375.71 67.0103 377.06 63.5503C376.51 65.2986 375.438 66.8372 373.99 67.9603C371.38 70.2103 362.71 72.7303 362.71 72.7303V70.0803Z" fill="#F28F8F"/>
<path d="M361.7 44.3403L365.86 46.1603C366.104 45.5851 366.114 44.9373 365.888 44.3547C365.662 43.772 365.218 43.3005 364.65 43.0403C364.372 42.922 364.073 42.862 363.771 42.8639C363.468 42.8659 363.17 42.9297 362.893 43.0516C362.617 43.1734 362.368 43.3506 362.163 43.5723C361.958 43.7939 361.8 44.0553 361.7 44.3403Z" fill="#263238"/>
<path d="M364.99 59.0203L356.81 61.8803C356.973 62.4256 357.245 62.9323 357.608 63.3702C357.972 63.808 358.42 64.168 358.926 64.4285C359.432 64.689 359.986 64.8447 360.553 64.8862C361.121 64.9278 361.691 64.8543 362.23 64.6703C362.789 64.4906 363.306 64.1998 363.75 63.8154C364.194 63.431 364.556 62.9608 364.813 62.4332C365.071 61.9055 365.22 61.3312 365.25 60.7448C365.28 60.1583 365.192 59.5718 364.99 59.0203V59.0203Z" fill="#B16668"/>
<path d="M363.99 61.1803C363.016 61.1803 362.082 61.5649 361.391 62.2505C360.7 62.936 360.308 63.8669 360.3 64.8403C360.948 64.91 361.604 64.8523 362.23 64.6703C362.975 64.4363 363.642 64.0019 364.157 63.4146C364.672 62.8273 365.015 62.1097 365.15 61.3403C364.774 61.2261 364.383 61.1721 363.99 61.1803V61.1803Z" fill="#F28F8F"/>
<path d="M353.99 21.9703C344.23 23.1503 338.65 30.5403 338.65 43.0703H347.65C349.679 43.0667 351.637 42.3283 353.163 40.9916C354.689 39.655 355.679 37.8108 355.95 35.8003V35.8003L356.28 43.0703C357.949 43.0689 359.557 42.4416 360.787 41.3122C362.016 40.1829 362.777 38.6336 362.92 36.9703L363.03 35.7803C363.184 37.7629 364.079 39.6147 365.538 40.966C366.997 42.3173 368.911 43.0687 370.9 43.0703H371.7L372.62 30.0703L353.99 21.9703Z" fill="#263238"/>
<path d="M357.46 227.9C357.46 194.61 337.27 155.9 312.36 141.52C300.94 134.9 290.24 134.19 282.3 138.95L263.22 150.15L268.65 161.47C267.676 166.147 267.2 170.913 267.23 175.69C267.23 208.99 287.43 247.69 312.33 262.07C314.009 263.042 315.745 263.911 317.53 264.67L322.68 275.55L341.65 264.6C351.31 259.14 357.46 246.26 357.46 227.9Z" fill="#9649CB"/>
<path d="M319.97 276.947C339.937 268.492 343.986 232.977 329.015 197.621C314.044 162.265 285.721 140.458 265.755 148.912C245.788 157.367 241.739 192.882 256.71 228.238C271.681 263.594 300.004 285.401 319.97 276.947Z" fill="#9649CB"/>
<path opacity="0.1" d="M356.95 236.52C356.9 236.9 356.86 237.27 356.8 237.64C356.7 238.42 356.58 239.2 356.45 239.95C356.23 241.19 355.98 242.39 355.69 243.55C355.52 244.33 355.31 245.09 355.08 245.83C354.97 246.2 354.85 246.56 354.74 246.92C354.63 247.28 354.5 247.65 354.38 248C354.13 248.71 353.86 249.39 353.59 250.07L353.17 251.07C352.86 251.77 352.55 252.44 352.17 253.07L351.85 253.68C351.33 254.68 350.77 255.57 350.18 256.45L349.88 256.89L349.65 257.2C348.241 259.187 346.557 260.965 344.65 262.48L344.22 262.82C343.96 263.02 343.69 263.22 343.42 263.4L342.42 264.05C342.13 264.23 341.82 264.42 341.52 264.58L323.06 275.34C330.77 270.54 336.06 260.85 337.62 247.34C337.927 244.588 338.078 241.82 338.07 239.05C338.07 224.38 334.15 208.65 327.63 194.41L346.99 183.21C353.52 197.45 357.46 213.21 357.46 227.89C357.461 230.64 357.304 233.388 356.99 236.12C356.99 236.26 356.97 236.39 356.95 236.52Z" fill="black"/>
<path opacity="0.1" d="M357 236.12C356.85 237.43 356.67 238.71 356.45 239.95C356.23 241.19 355.98 242.39 355.69 243.55C355.5 244.33 355.29 245.09 355.08 245.83C354.97 246.2 354.85 246.56 354.74 246.92C354.63 247.28 354.5 247.65 354.38 248C354.13 248.71 353.86 249.39 353.59 250.07L353.17 251.07C352.86 251.77 352.55 252.44 352.17 253.07L351.85 253.68C351.33 254.68 350.77 255.57 350.18 256.45C350.01 256.71 349.84 256.96 349.65 257.2C348.241 259.187 346.557 260.965 344.65 262.48L344.22 262.82C343.96 263.02 343.69 263.22 343.42 263.4L342.42 264.05C342.13 264.23 341.82 264.42 341.52 264.58L323.06 275.34C330.77 270.54 336.06 260.85 337.62 247.34L357 236.12Z" fill="black"/>
<path opacity="0.4" d="M346.99 183.22L327.65 194.42C319.37 176.31 306.87 160.59 292.89 152.51C281.58 145.96 271.24 145.51 263.31 150.12L282.31 138.96C290.25 134.19 300.95 134.9 312.37 141.52C326.27 149.57 338.71 165.2 346.99 183.22Z" fill="white"/>
<path d="M323.96 230.26C323.96 239.55 321.54 247.07 317.47 251.93C311.8 258.73 303 260.39 293.14 254.65C283.28 248.91 274.42 237.01 268.75 223.65C264.68 214.06 262.26 203.76 262.26 194.46L323.96 230.26Z" fill="#37474F"/>
<path d="M317.47 251.93C311.8 258.73 303 260.39 293.14 254.65C283.28 248.91 274.42 237.01 268.75 223.65C275.07 219.09 283.69 219.03 293.14 224.48C302.59 229.93 311.15 239.97 317.47 251.93Z" fill="#F28F8F"/>
<path d="M305.55 197.61C305.55 202.37 308.05 207.68 311.14 209.47C314.23 211.26 316.73 208.84 316.73 204.08C316.73 199.32 314.23 194.01 311.14 192.22C308.05 190.43 305.55 192.85 305.55 197.61Z" fill="#37474F"/>
<path d="M270.18 177.14C270.18 181.9 272.68 187.21 275.77 188.99C278.86 190.77 281.36 188.37 281.36 183.61C281.36 178.85 278.85 173.54 275.77 171.75C272.69 169.96 270.18 172.34 270.18 177.14Z" fill="#37474F"/>
<path d="M329.46 157.1C327.625 157.048 325.792 157.223 324 157.62C320.28 158.3 316.71 158.77 313 157.41C310.88 156.63 308.39 154.91 308 152.47C307.61 150.03 310.27 149.24 311.92 148.35C314.188 147.109 316.552 146.052 318.99 145.19C323.08 143.744 327.503 143.518 331.72 144.54C333.89 145.05 336.8 145.75 338.94 144.74C340.39 144.05 341.81 143.22 343.23 142.49L354.4 136.72L369.79 128.77L376.87 98.2603C376.87 98.2603 378.52 85.7303 385.49 77.6803C390.78 78.1503 395.94 79.9803 397.13 83.2503C398.32 86.5203 397.49 91.0203 396.02 97.8603C394.55 104.7 386.92 126.86 383.95 134.78C382.59 138.4 381.95 139.92 377.13 142.01C370.023 145.11 362.897 148.177 355.75 151.21C352.04 152.78 348.34 154.35 344.62 155.89C342.28 156.89 339.92 157.98 337.35 158.11C334.78 158.24 332.13 157.25 329.46 157.1Z" fill="#FFA8A7"/>
<path d="M133.82 88.9803C133.82 88.9803 153.6 101.22 155.36 102.2C157.12 103.18 160.76 106.67 164.48 102.08C167.48 98.4003 187.83 67.0803 187.83 67.0803L177.03 61.8803L158.03 85.1703L129.43 64.8103L133.82 88.9803Z" fill="#FFA8A7"/>
<path d="M134.25 66.6603C140.65 71.7103 151.65 79.8703 151.65 79.8703C150.713 86.1185 147.781 91.8961 143.29 96.3403L132.13 89.4503L118.28 61.3803C118.28 61.3803 125.54 59.8203 134.25 66.6603Z" fill="#37474F"/>
<path d="M143.13 138.45C143.13 104.86 163.55 65.8404 188.74 51.2904C200.3 44.6204 211.11 43.9104 219.15 48.7104L238.44 60.0104L232.92 71.4304C233.907 76.1489 234.387 80.9597 234.35 85.7804C234.35 119.37 213.93 158.39 188.74 172.93C187.046 173.911 185.292 174.786 183.49 175.55L178.28 186.55L159.15 175.55C149.35 169.97 143.13 156.98 143.13 138.45Z" fill="#9649CB"/>
<path d="M244.987 138.868C260.16 103.208 256.105 67.3407 235.93 58.7561C215.755 50.1714 187.099 72.1202 171.926 107.78C156.752 143.44 160.807 179.307 180.982 187.892C201.157 196.476 229.813 174.528 244.987 138.868Z" fill="#9649CB"/>
<path opacity="0.1" d="M143.65 147.15L143.8 148.28C143.91 149.07 144.03 149.85 144.16 150.6C144.38 151.86 144.63 153.07 144.93 154.24C145.1 155.02 145.31 155.79 145.55 156.54C145.66 156.91 145.78 157.28 145.89 157.64C146 158 146.14 158.37 146.26 158.73C146.51 159.44 146.78 160.13 147.05 160.82C147.19 161.14 147.33 161.47 147.48 161.82C147.79 162.52 148.11 163.2 148.48 163.82L148.8 164.43C149.33 165.43 149.9 166.34 150.49 167.22C150.59 167.38 150.69 167.52 150.8 167.67L151.02 167.98C152.429 169.982 154.112 171.776 156.02 173.31L156.45 173.65C156.72 173.86 156.99 174.05 157.26 174.24C157.53 174.43 157.91 174.68 158.26 174.89C158.61 175.1 158.87 175.26 159.17 175.43L177.92 186.34C170.12 181.5 164.74 171.73 163.2 158.1C162.889 155.325 162.736 152.533 162.74 149.74C162.74 134.93 166.74 119.07 173.3 104.74L153.72 93.3403C147.11 107.71 143.13 123.59 143.13 138.42C143.129 141.194 143.286 143.965 143.6 146.72V146.72C143.65 146.88 143.65 147.01 143.65 147.15Z" fill="black"/>
<path opacity="0.1" d="M143.59 146.75C143.75 148.07 143.93 149.36 144.15 150.6C144.37 151.84 144.62 153.07 144.92 154.24C145.11 155.02 145.32 155.79 145.54 156.54C145.65 156.91 145.77 157.28 145.88 157.64C145.99 158 146.13 158.37 146.25 158.73C146.5 159.44 146.77 160.13 147.04 160.82C147.18 161.14 147.32 161.47 147.47 161.82C147.78 162.52 148.1 163.2 148.47 163.82L148.79 164.43C149.32 165.43 149.89 166.34 150.48 167.22C150.65 167.49 150.83 167.74 151.01 167.98C152.419 169.982 154.102 171.776 156.01 173.31L156.44 173.65C156.71 173.86 156.98 174.05 157.25 174.24C157.52 174.43 157.9 174.68 158.25 174.89C158.6 175.1 158.86 175.26 159.16 175.43L177.92 186.34C170.12 181.5 164.74 171.73 163.2 158.1L143.59 146.75Z" fill="black"/>
<path opacity="0.4" d="M153.72 93.3403L173.3 104.65C181.68 86.3703 194.3 70.5103 208.45 62.3503C219.89 55.7403 230.36 55.3503 238.37 59.9503L219.15 48.7103C211.15 43.9103 200.3 44.6203 188.74 51.3003C174.65 59.4203 162.09 75.1903 153.72 93.3403Z" fill="white"/>
<path d="M195.65 107.89C195.65 112.69 193.12 118.05 190 119.89C186.88 121.73 184.35 119.26 184.35 114.45C184.35 109.64 186.88 104.3 190 102.45C193.12 100.6 195.65 103.09 195.65 107.89Z" fill="#37474F"/>
<path d="M231.4 87.2403C231.4 92.0403 228.87 97.4003 225.75 99.2403C222.63 101.08 220.1 98.6004 220.1 93.8004C220.1 89.0004 222.63 83.6403 225.75 81.8003C228.87 79.9603 231.4 82.4303 231.4 87.2403Z" fill="#37474F"/>
<path d="M197.76 164.12C195.425 164.128 193.111 163.676 190.95 162.79C184.53 160.18 179.6 153.79 177.07 144.67C176.952 144.296 176.911 143.902 176.949 143.511C176.986 143.12 177.102 142.741 177.289 142.396C177.476 142.051 177.731 141.747 178.037 141.502C178.344 141.257 178.697 141.077 179.075 140.971C179.453 140.865 179.848 140.836 180.237 140.886C180.627 140.936 181.002 141.063 181.341 141.261C181.68 141.459 181.976 141.722 182.211 142.037C182.446 142.351 182.616 142.709 182.71 143.09C184.71 150.38 188.46 155.45 193.17 157.37C197.17 159.01 201.97 158.37 206.99 155.45C218.99 148.51 229.91 130.36 234.15 110.28C234.31 109.519 234.767 108.853 235.418 108.428C236.07 108.003 236.864 107.855 237.625 108.015C238.386 108.176 239.052 108.632 239.477 109.284C239.902 109.935 240.05 110.729 239.89 111.49C235.25 133.44 223.49 152.69 209.89 160.49C206.235 162.743 202.052 163.995 197.76 164.12V164.12Z" fill="#37474F"/>
<path d="M173.52 147.03C172.229 147.07 170.947 146.803 169.78 146.25C169.274 145.953 168.903 145.472 168.744 144.908C168.585 144.343 168.651 143.739 168.927 143.222C169.204 142.705 169.67 142.315 170.228 142.133C170.786 141.952 171.392 141.994 171.92 142.25C173.678 142.708 175.542 142.527 177.18 141.74C178.566 141.148 179.796 140.243 180.774 139.096C181.753 137.949 182.453 136.592 182.82 135.13C182.988 134.552 183.38 134.065 183.907 133.775C184.435 133.485 185.057 133.417 185.635 133.585C186.213 133.754 186.701 134.145 186.99 134.673C187.28 135.201 187.348 135.822 187.18 136.4C186.395 139.432 184.63 142.119 182.159 144.043C179.689 145.968 176.651 147.021 173.52 147.04V147.03Z" fill="#37474F"/>
<path d="M232.17 113.24C230.875 113.282 229.588 113.011 228.42 112.45C227.914 112.154 227.543 111.672 227.384 111.108C227.225 110.543 227.291 109.939 227.567 109.422C227.844 108.905 228.31 108.515 228.868 108.333C229.426 108.152 230.032 108.194 230.56 108.45C232.318 108.908 234.182 108.727 235.82 107.94C237.208 107.35 238.439 106.446 239.418 105.299C240.397 104.152 241.096 102.794 241.46 101.33C241.628 100.752 242.02 100.265 242.547 99.9749C243.075 99.6851 243.697 99.617 244.275 99.7854C244.853 99.9538 245.341 100.345 245.63 100.873C245.92 101.401 245.988 102.022 245.82 102.6C245.033 105.63 243.269 108.315 240.801 110.24C238.333 112.165 235.3 113.223 232.17 113.25V113.24Z" fill="#37474F"/>
<path d="M79.2 331.57C78.84 332.98 78.09 336.99 70.63 336.99C63.17 336.99 58.9 333.99 57.43 330.15C55.96 326.31 56.8 323.55 56.94 320.25C57.08 316.95 54.62 314.84 54.08 313.05C53.28 310.42 55.47 306.8 55.47 306.8L79.2 331.57Z" fill="#263238"/>
<path d="M150.92 307.21C151.116 307.8 151.186 308.424 151.126 309.042C151.066 309.661 150.876 310.26 150.57 310.8C150.03 311.53 145.03 315.17 138.85 314.41C134.317 313.964 129.956 312.441 126.13 309.97C122.52 307.84 120.03 307.53 116.36 307.54C112.69 307.55 110.17 306.86 109.87 305.94C109.33 304.32 109.29 303.28 110.07 303.3L150.92 307.21Z" fill="#263238"/>
<path d="M58.0799 301.05C57.9499 304.89 69.6499 308.22 69.3999 303.34L73.3999 289.17L60.2799 287.78L58.0799 301.05Z" fill="#FFA8A7"/>
<path d="M112.65 292.04C116.34 294.68 119.74 295.04 124.07 292.84L126.25 269.64H110.34L112.65 292.04Z" fill="#FFA8A7"/>
<path d="M78.5 138.05C75.5 166.05 70.02 222.57 70.02 222.57C70.02 222.57 65.22 229.89 63.43 243.39C61.23 260.07 59.04 294.87 59.04 294.87C60.9771 296.031 63.1456 296.752 65.392 296.982C67.6385 297.211 69.908 296.945 72.04 296.2C72.04 296.2 90.75 245.11 94.21 228.7C97.21 214.37 102.58 184.95 102.58 184.95L109.27 224.95C107.527 231.299 106.798 237.884 107.11 244.46C107.43 252.17 111.05 281.35 111.05 281.35C112.13 284.54 122.14 284.35 125.36 282.26C125.36 282.26 130.48 233.26 131.16 225.11C132.05 214.45 133.7 138.01 133.7 138.01L78.5 138.05Z" fill="#37474F"/>
<path d="M102.56 184.95L106.29 167.73C106.29 167.73 114.64 165.83 120.6 161.05C120.6 161.05 118.42 166.54 109.27 170.74L105.46 186.87L108.74 222.25L102.56 184.95Z" fill="#263238"/>
<path d="M69.4 303.34L69.83 301.86C70.32 302.35 70.24 302.77 70.25 304.09C70.25 305.14 70.25 306.15 70.39 307.54C70.5678 309.356 70.9024 311.153 71.39 312.91C72.39 317 73.44 318.64 76.31 323.69C76.99 324.88 78.64 326.87 79.13 328.17C79.62 329.47 79.76 331.82 78.23 332.72C73.87 335.3 67.14 334.6 62.87 332.59C61.2725 331.866 59.917 330.697 58.9649 329.224C58.0128 327.75 57.5043 326.035 57.5 324.28C57.5 323.28 57.72 322.21 57.76 321.17C57.7347 318.785 57.1307 316.441 56 314.34C55.3394 313.127 54.8097 311.846 54.42 310.52C53.85 308.1 54.98 305.67 55.93 303.52C56.74 301.65 57.69 299.15 58.33 299.44C58.33 299.68 58.08 301.08 58.08 301.08C58.74 302.08 60.82 303.32 63.31 303.8C64.91 304.09 69.23 304.57 69.4 303.34Z" fill="#455A64"/>
<path d="M124.54 288C125.11 288 125.69 288.45 126.7 289.92C128.085 291.955 129.88 293.679 131.97 294.98C135.73 297.62 141.66 300.29 147.76 302.57C151.08 303.81 151.71 306.21 150.61 308.36C148.89 310.08 143.03 314.1 133.4 311.17C127.4 309.35 125.33 306.28 121.06 305.74C118.06 305.36 112.8 306.18 109.72 303.74C108.72 301.41 109.53 299.07 109.84 295.83C110.15 292.59 111.18 287.42 112.21 287.62L112.39 289.34C113.21 293.08 121.82 293.45 124.26 291L124.54 288Z" fill="#455A64"/>
<path d="M99.95 60.3403C91.77 60.3403 85.84 60.7903 80.55 61.9303C76.41 62.8103 75.1 69.7603 74.83 74.3903C73.94 89.3903 80.65 117.34 80.65 117.34L77.52 143.34C84.52 150.84 115.9 154.75 133.82 143.76C133.82 143.76 134.3 92.6103 133.82 83.9903C132.98 68.8203 126.47 61.5503 120.88 61.1203C120.88 61.0903 108.13 60.3403 99.95 60.3403Z" fill="#9649CB"/>
<path d="M92.48 14.2503C92.48 14.2503 88.19 14.8403 86.62 18.0703C85.25 20.8803 85.74 27.6703 87.62 35.0703C89.5 42.4703 91.16 46.9203 92.23 48.9703C92.9447 50.2298 94.115 51.1675 95.5 51.5903L95.29 42.8103L94.97 36.7003C94.97 36.7003 98.89 31.3403 99.32 26.9503C99.88 21.3003 98.69 18.9503 98.69 18.9503L92.48 14.2503Z" fill="#37474F"/>
<path d="M99.4 22.7403C99.4039 25.9813 100.369 29.1482 102.174 31.8403C103.978 34.5324 106.541 36.6287 109.537 37.8639C112.533 39.0991 115.829 39.4177 119.006 38.7794C122.184 38.1411 125.1 36.5745 127.387 34.2779C129.674 31.9813 131.228 29.058 131.853 25.8778C132.477 22.6977 132.145 19.4037 130.897 16.4127C129.649 13.4217 127.542 10.8681 124.842 9.07516C122.142 7.28221 118.971 6.33046 115.73 6.34035C111.391 6.35359 107.234 8.08792 104.173 11.1627C101.111 14.2374 99.3947 18.4013 99.4 22.7403V22.7403Z" fill="#37474F"/>
<path d="M95.15 35.7203C93.67 36.9903 92.48 33.7203 91.23 32.4003C89.98 31.0803 85.95 29.4003 83.95 33.6003C81.95 37.8003 85.8 43.8103 88.82 45.2203C93.25 47.2703 95.24 42.8003 95.24 42.8003L95.71 61.2603C103.28 72.7303 120.88 70.4003 113.54 61.9803V55.9803C113.54 55.9803 118.54 56.7103 120.92 56.3303C124.92 55.7003 127.05 52.6603 128.26 48.3303C130.2 41.3303 130.15 30.6603 127.46 17.0503C122.95 13.5703 108.14 13.0503 98.68 19.0503C99.33 31.0503 96.65 34.4403 95.15 35.7203Z" fill="#FFA8A7"/>
<path d="M130.5 6.25033C130.449 6.1306 130.368 6.02615 130.265 5.94726C130.161 5.86836 130.039 5.81773 129.91 5.80033C129.705 5.81584 129.511 5.90045 129.36 6.04033C128.232 6.94099 127.031 7.74705 125.77 8.45033C126.105 6.83942 126.125 5.17898 125.83 3.56033C125.66 2.56033 125.38 0.270333 124.15 0.0203332C123.42 -0.119667 122.78 0.490333 122.23 1.02033C117.31 5.63033 110.88 3.49033 104.95 3.68033C99.95 3.84033 94.01 5.86033 91.77 10.6803C90.77 12.8903 90.57 15.2103 92.59 16.7403C94.3896 17.9451 96.4428 18.7185 98.59 19.0003C108.47 20.7203 121.77 24.1003 129.08 14.8903C130.179 13.5989 130.874 12.0134 131.08 10.3303C131.262 8.96709 131.054 7.58007 130.48 6.33033C130.495 6.30628 130.501 6.2784 130.5 6.25033V6.25033Z" fill="#263238"/>
<path d="M113.5 55.9703C113.5 55.9703 104.5 54.1803 101.35 52.5203C99.5024 51.5638 97.9863 50.0721 96.9999 48.2403C97.4719 50.091 98.3157 51.8263 99.4799 53.3403C101.79 56.2703 113.48 58.4003 113.48 58.4003L113.5 55.9703Z" fill="#F28F8F"/>
<path d="M111.17 33.5503C111.158 33.9055 111.042 34.2494 110.836 34.539C110.63 34.8287 110.344 35.0513 110.012 35.1792C109.68 35.307 109.319 35.3344 108.972 35.2579C108.624 35.1815 108.308 35.0045 108.06 34.7492C107.813 34.4938 107.647 34.1713 107.582 33.822C107.516 33.4726 107.556 33.1118 107.694 32.7845C107.833 32.4573 108.065 32.1781 108.361 31.9817C108.657 31.7853 109.005 31.6805 109.36 31.6803C109.602 31.6829 109.841 31.7335 110.063 31.8291C110.286 31.9248 110.487 32.0636 110.655 32.2375C110.824 32.4114 110.956 32.617 111.044 32.8424C111.133 33.0677 111.175 33.3083 111.17 33.5503V33.5503Z" fill="#263238"/>
<path d="M109.24 26.7503L105.39 28.8903C105.114 28.3626 105.052 27.7486 105.218 27.1765C105.384 26.6045 105.764 26.1186 106.28 25.8203C106.534 25.6824 106.814 25.597 107.102 25.5692C107.39 25.5414 107.681 25.5718 107.957 25.6585C108.233 25.7453 108.489 25.8866 108.709 26.0742C108.93 26.2617 109.11 26.4917 109.24 26.7503V26.7503Z" fill="#263238"/>
<path d="M110.21 43.2503L119.41 46.6603C119.214 47.279 118.896 47.8517 118.473 48.3439C118.05 48.8361 117.532 49.2377 116.95 49.5246C116.368 49.8114 115.734 49.9774 115.086 50.0128C114.438 50.0482 113.79 49.9521 113.18 49.7303C111.943 49.2437 110.943 48.297 110.389 47.0888C109.835 45.8806 109.771 44.5049 110.21 43.2503V43.2503Z" fill="#B16668"/>
<path d="M127.22 28.1903L123.65 25.5003C123.815 25.2623 124.026 25.0603 124.272 24.9064C124.517 24.7525 124.791 24.6501 125.077 24.6052C125.363 24.5603 125.656 24.574 125.936 24.6453C126.217 24.7167 126.48 24.8443 126.71 25.0203C127.185 25.3825 127.503 25.9135 127.598 26.5035C127.693 27.0934 127.558 27.6973 127.22 28.1903V28.1903Z" fill="#263238"/>
<path d="M126.15 32.9903C126.136 33.3426 126.019 33.6831 125.814 33.9695C125.608 34.256 125.323 34.4758 124.994 34.6017C124.665 34.7275 124.306 34.7539 123.961 34.6776C123.617 34.6012 123.303 34.4255 123.058 34.1722C122.813 33.9189 122.647 33.5991 122.582 33.2526C122.517 32.9062 122.555 32.5482 122.692 32.2232C122.828 31.8981 123.057 31.6204 123.35 31.4243C123.643 31.2283 123.987 31.1226 124.34 31.1203C124.582 31.1229 124.821 31.1735 125.043 31.2691C125.266 31.3648 125.467 31.5036 125.635 31.6775C125.804 31.8514 125.936 32.057 126.024 32.2823C126.113 32.5077 126.155 32.7483 126.15 32.9903V32.9903Z" fill="#263238"/>
<path d="M116.97 31.3103L117.59 42.1403L123.24 40.2003L116.97 31.3103Z" fill="#F28F8F"/>
<path d="M113.18 49.7303C114.025 50.0419 114.941 50.1044 115.82 49.9103C115.796 49.2399 115.611 48.5852 115.279 48.002C114.948 47.4188 114.48 46.9244 113.916 46.561C113.353 46.1976 112.709 45.9759 112.041 45.9148C111.373 45.8537 110.7 45.9551 110.08 46.2103C110.269 47.0058 110.651 47.7427 111.192 48.3564C111.732 48.9701 112.415 49.4418 113.18 49.7303V49.7303Z" fill="#F28F8F"/>
<path d="M89.17 134.08C84.75 132.59 83.01 131.72 80.9 125.03C75.28 107.24 70.2 92.5703 69.12 83.6503C67.04 66.4003 73.97 64.8303 79.2 62.9503L86.4 80.4403L97 118.57C105.52 122.4 119.47 125.23 129.45 128.33C131.642 128.836 133.891 129.055 136.14 128.98C139.62 128.64 141.76 128.23 143.7 128.57C143.51 130 143.43 131.35 143.33 132.62C146.734 132.611 150.131 132.3 153.48 131.69C160.74 130.34 163.34 132.75 157.38 140.04C154.01 144.17 147.38 145.76 137.74 144.74C132.744 144.097 127.805 143.064 122.97 141.65C110.35 138.26 96.12 136.41 89.17 134.08Z" fill="#FFA8A7"/>
<path d="M80.5499 61.8803C69.9199 63.0403 65.4599 72.4103 67.6499 83.3403C69.2199 91.1003 72.29 101.81 74.77 109.63C74.77 109.63 87.7099 109.5 93.9199 103.56C91.5799 95.8803 91.2 94.2703 89.13 86.9903C88.37 72.4303 85.3499 65.3403 80.5499 61.8803Z" fill="#37474F"/>
<path d="M180.45 57.0803C181.63 56.0803 182.96 55.0803 184.45 54.0203C184.45 54.0203 188.76 54.4203 194 58.5803C197.32 61.2103 207.32 61.0303 205.89 56.4303C203.89 49.9603 196.89 47.6003 193.75 46.9203C188.58 45.8003 179.3 50.3403 180.45 57.0803Z" fill="#FFA8A7"/>
</svg>
