<svg width="182" height="67" viewBox="0 0 182 67" fill="none" xmlns="http://www.w3.org/2000/svg">
<path d="M32.3877 40.8193C32.3877 44.3057 31.7285 47.5869 30.4102 50.6631C29.0918 53.71 27.29 56.376 25.0049 58.6611C22.749 60.917 20.083 62.7041 17.0068 64.0225C13.96 65.3408 10.6934 66 7.20703 66C5.09766 66 2.98828 65.7363 0.878906 65.209V51.6738C1.81641 52.2305 2.82715 52.6553 3.91113 52.9482C4.99512 53.2412 6.09375 53.3877 7.20703 53.3877C8.93555 53.3877 10.5615 53.0654 12.085 52.4209C13.6377 51.7471 14.9854 50.8389 16.1279 49.6963C17.2705 48.5537 18.1641 47.2207 18.8086 45.6973C19.4824 44.1738 19.8193 42.5479 19.8193 40.8193V2.98242H32.3877V40.8193ZM86.8799 42.0498C86.8799 45.5654 86.25 48.8467 84.9902 51.8936C83.7305 54.9111 82.0166 57.5332 79.8486 59.7598C77.6807 61.957 75.1318 63.7002 72.2021 64.9893C69.3018 66.249 66.1816 66.8789 62.8418 66.8789C59.5312 66.8789 56.4111 66.249 53.4814 64.9893C50.5811 63.7002 48.0322 61.957 45.835 59.7598C43.667 57.5332 41.9531 54.9111 40.6934 51.8936C39.4336 48.8467 38.8037 45.5654 38.8037 42.0498C38.8037 38.4756 39.4336 35.165 40.6934 32.1182C41.9531 29.0713 43.667 26.4492 45.835 24.252C48.0322 22.0254 50.5811 20.2822 53.4814 19.0225C56.4111 17.7627 59.5312 17.1328 62.8418 17.1328C66.1816 17.1328 69.3018 17.7334 72.2021 18.9346C75.1318 20.1064 77.6807 21.791 79.8486 23.9883C82.0166 26.1562 83.7305 28.7783 84.9902 31.8545C86.25 34.9014 86.8799 38.2998 86.8799 42.0498ZM74.7949 42.0498C74.7949 40.1162 74.4727 38.373 73.8281 36.8203C73.2129 35.2383 72.3633 33.8906 71.2793 32.7773C70.1953 31.6348 68.9209 30.7705 67.4561 30.1846C66.0205 29.5693 64.4824 29.2617 62.8418 29.2617C61.2012 29.2617 59.6484 29.5693 58.1836 30.1846C56.748 30.7705 55.4883 31.6348 54.4043 32.7773C53.3496 33.8906 52.5146 35.2383 51.8994 36.8203C51.2842 38.373 50.9766 40.1162 50.9766 42.0498C50.9766 43.8662 51.2842 45.5508 51.8994 47.1035C52.5146 48.6562 53.3496 50.0039 54.4043 51.1465C55.4883 52.2891 56.748 53.1973 58.1836 53.8711C59.6484 54.5156 61.2012 54.8379 62.8418 54.8379C64.4824 54.8379 66.0205 54.5303 67.4561 53.915C68.9209 53.2998 70.1953 52.4355 71.2793 51.3223C72.3633 50.209 73.2129 48.8613 73.8281 47.2793C74.4727 45.6973 74.7949 43.9541 74.7949 42.0498ZM105.601 66H93.5156V0.213867H105.601V41.6982L123.486 19.0225H137.285L121.685 38.6221L137.285 66H123.486L113.95 48.9053L105.601 59.9795V66ZM159.258 54.4863C159.727 54.6328 160.195 54.7354 160.664 54.7939C161.133 54.8232 161.602 54.8379 162.07 54.8379C163.242 54.8379 164.37 54.6768 165.454 54.3545C166.538 54.0322 167.549 53.5781 168.486 52.9922C169.453 52.377 170.303 51.6445 171.035 50.7949C171.797 49.916 172.412 48.9492 172.881 47.8945L181.67 56.7275C180.557 58.3096 179.268 59.7305 177.803 60.9902C176.367 62.25 174.8 63.3193 173.101 64.1982C171.431 65.0771 169.658 65.7363 167.783 66.1758C165.938 66.6445 164.033 66.8789 162.07 66.8789C158.76 66.8789 155.64 66.2637 152.71 65.0332C149.81 63.8027 147.261 62.0889 145.063 59.8916C142.896 57.6943 141.182 55.0869 139.922 52.0693C138.662 49.0225 138.032 45.6826 138.032 42.0498C138.032 38.3291 138.662 34.9307 139.922 31.8545C141.182 28.7783 142.896 26.1562 145.063 23.9883C147.261 21.8203 149.81 20.1357 152.71 18.9346C155.64 17.7334 158.76 17.1328 162.07 17.1328C164.033 17.1328 165.952 17.3672 167.827 17.8359C169.702 18.3047 171.475 18.9785 173.145 19.8574C174.844 20.7363 176.426 21.8203 177.891 23.1094C179.355 24.3691 180.645 25.79 181.758 27.3721L159.258 54.4863ZM165.41 29.7451C164.854 29.54 164.297 29.4082 163.74 29.3496C163.213 29.291 162.656 29.2617 162.07 29.2617C160.43 29.2617 158.877 29.5693 157.412 30.1846C155.977 30.7705 154.717 31.6201 153.633 32.7334C152.578 33.8467 151.743 35.1943 151.128 36.7764C150.513 38.3291 150.205 40.0869 150.205 42.0498C150.205 42.4893 150.22 42.9873 150.249 43.5439C150.308 44.1006 150.381 44.6719 150.469 45.2578C150.586 45.8145 150.718 46.3564 150.864 46.8838C151.011 47.4111 151.201 47.8799 151.436 48.29L165.41 29.7451Z" fill="black"/>
</svg>
