<svg width="81" height="31" viewBox="0 0 81 31" fill="none" xmlns="http://www.w3.org/2000/svg">
<path d="M14.3945 18.8086C14.3945 20.3581 14.1016 21.8164 13.5156 23.1836C12.9297 24.5378 12.1289 25.7227 11.1133 26.7383C10.1107 27.7409 8.92578 28.5352 7.55859 29.1211C6.20443 29.707 4.7526 30 3.20312 30C2.26562 30 1.32812 29.8828 0.390625 29.6484V23.6328C0.807292 23.8802 1.25651 24.069 1.73828 24.1992C2.22005 24.3294 2.70833 24.3945 3.20312 24.3945C3.97135 24.3945 4.69401 24.2513 5.37109 23.9648C6.0612 23.6654 6.66016 23.2617 7.16797 22.7539C7.67578 22.2461 8.07292 21.6536 8.35938 20.9766C8.65885 20.2995 8.80859 19.5768 8.80859 18.8086V1.99219H14.3945V18.8086ZM38.6133 19.3555C38.6133 20.918 38.3333 22.3763 37.7734 23.7305C37.2135 25.0716 36.4518 26.237 35.4883 27.2266C34.5247 28.2031 33.3919 28.9779 32.0898 29.5508C30.8008 30.1107 29.4141 30.3906 27.9297 30.3906C26.4583 30.3906 25.0716 30.1107 23.7695 29.5508C22.4805 28.9779 21.3477 28.2031 20.3711 27.2266C19.4076 26.237 18.6458 25.0716 18.0859 23.7305C17.526 22.3763 17.2461 20.918 17.2461 19.3555C17.2461 17.7669 17.526 16.2956 18.0859 14.9414C18.6458 13.5872 19.4076 12.4219 20.3711 11.4453C21.3477 10.4557 22.4805 9.68099 23.7695 9.12109C25.0716 8.5612 26.4583 8.28125 27.9297 8.28125C29.4141 8.28125 30.8008 8.54818 32.0898 9.08203C33.3919 9.60286 34.5247 10.3516 35.4883 11.3281C36.4518 12.2917 37.2135 13.457 37.7734 14.8242C38.3333 16.1784 38.6133 17.6888 38.6133 19.3555ZM33.2422 19.3555C33.2422 18.4961 33.099 17.7214 32.8125 17.0312C32.5391 16.3281 32.1615 15.7292 31.6797 15.2344C31.1979 14.7266 30.6315 14.3424 29.9805 14.082C29.3424 13.8086 28.6589 13.6719 27.9297 13.6719C27.2005 13.6719 26.5104 13.8086 25.8594 14.082C25.2214 14.3424 24.6615 14.7266 24.1797 15.2344C23.7109 15.7292 23.3398 16.3281 23.0664 17.0312C22.793 17.7214 22.6562 18.4961 22.6562 19.3555C22.6562 20.1628 22.793 20.9115 23.0664 21.6016C23.3398 22.2917 23.7109 22.8906 24.1797 23.3984C24.6615 23.9062 25.2214 24.3099 25.8594 24.6094C26.5104 24.8958 27.2005 25.0391 27.9297 25.0391C28.6589 25.0391 29.3424 24.9023 29.9805 24.6289C30.6315 24.3555 31.1979 23.9714 31.6797 23.4766C32.1615 22.9818 32.5391 22.3828 32.8125 21.6797C33.099 20.9766 33.2422 20.2018 33.2422 19.3555ZM46.9336 30H41.5625V0.761719H46.9336V19.1992L54.8828 9.12109H61.0156L54.082 17.832L61.0156 30H54.8828L50.6445 22.4023L46.9336 27.3242V30ZM70.7812 24.8828C70.9896 24.9479 71.1979 24.9935 71.4062 25.0195C71.6146 25.0326 71.8229 25.0391 72.0312 25.0391C72.5521 25.0391 73.0534 24.9674 73.5352 24.8242C74.0169 24.681 74.4661 24.4792 74.8828 24.2188C75.3125 23.9453 75.6901 23.6198 76.0156 23.2422C76.3542 22.8516 76.6276 22.4219 76.8359 21.9531L80.7422 25.8789C80.2474 26.582 79.6745 27.2135 79.0234 27.7734C78.3854 28.3333 77.6888 28.8086 76.9336 29.1992C76.1914 29.5898 75.4036 29.8828 74.5703 30.0781C73.75 30.2865 72.9036 30.3906 72.0312 30.3906C70.5599 30.3906 69.1732 30.1172 67.8711 29.5703C66.582 29.0234 65.4492 28.2617 64.4727 27.2852C63.5091 26.3086 62.7474 25.1497 62.1875 23.8086C61.6276 22.4544 61.3477 20.9701 61.3477 19.3555C61.3477 17.7018 61.6276 16.1914 62.1875 14.8242C62.7474 13.457 63.5091 12.2917 64.4727 11.3281C65.4492 10.3646 66.582 9.61589 67.8711 9.08203C69.1732 8.54818 70.5599 8.28125 72.0312 8.28125C72.9036 8.28125 73.7565 8.38542 74.5898 8.59375C75.4232 8.80208 76.2109 9.10156 76.9531 9.49219C77.7083 9.88281 78.4115 10.3646 79.0625 10.9375C79.7135 11.4974 80.2865 12.1289 80.7812 12.832L70.7812 24.8828ZM73.5156 13.8867C73.2682 13.7956 73.0208 13.737 72.7734 13.7109C72.5391 13.6849 72.2917 13.6719 72.0312 13.6719C71.3021 13.6719 70.612 13.8086 69.9609 14.082C69.3229 14.3424 68.763 14.7201 68.2812 15.2148C67.8125 15.7096 67.4414 16.3086 67.168 17.0117C66.8945 17.7018 66.7578 18.4831 66.7578 19.3555C66.7578 19.5508 66.7643 19.7721 66.7773 20.0195C66.8034 20.2669 66.8359 20.5208 66.875 20.7812C66.9271 21.0286 66.9857 21.2695 67.0508 21.5039C67.1159 21.7383 67.2005 21.9466 67.3047 22.1289L73.5156 13.8867Z" fill="white"/>
</svg>
